<?xml version="1.0" encoding="utf-8"?>
<!-- Generator: Adobe Illustrator 19.0.0, SVG Export Plug-In . SVG Version: 6.00 Build 0)  -->
<svg version="1.1" id="Layer_1" xmlns="http://www.w3.org/2000/svg" xmlns:xlink="http://www.w3.org/1999/xlink" x="0px" y="0px"
	 viewBox="0 0 640 421.8" style="enable-background:new 0 0 640 421.8;" xml:space="preserve">
<g id="XMLID_2_">
	<path id="XMLID_3_" d="M106.2,34.7c1,12.4,2,26.5,2.8,42.4c0.8,15.9,1.2,32.3,1.4,49.1c0.1,16.8-0.2,33.3-1,49.5
		c-0.8,16.2-2.1,30.7-3.9,43.6c-1.8,12.9-4.3,23.4-7.3,31.4c-3,8-6.8,12.3-11.2,12.8c-2.9,0.3-5.6-2.2-8.1-7.5
		c-2.5-5.3-4.9-12.1-7.1-20.5c-2.2-8.4-4.3-17.9-6.1-28.4c-1.8-10.5-3.4-20.9-4.7-31.2c-1.3-10.3-2.5-19.8-3.6-28.6
		c-1.1-8.8-1.8-15.8-2.4-21.1c-0.8-5.8-1.4-12.6-2-20.5c-0.5-7.9-0.9-16-1-24.5c-0.1-8.4-0.3-16.6-0.6-24.5
		c-0.3-7.9-0.5-14.7-0.8-20.5c-0.3-1.6-1.6-2.6-4.1-3c-2.5-0.4-5.8-0.8-9.9-1.2c-4.1-0.4-8.7-1.2-13.8-2.4
		c-5.1-1.2-10.2-3.5-15.2-6.9c-6.3-3.9-8.7-7.2-7.1-9.9c1.6-2.6,5.5-4.8,11.6-6.5c6.2-1.7,13.8-3,22.9-3.9c9.1-0.9,18-1.6,26.8-2
		C70.7,0.2,78.4,0,85.1,0s10.7,0.1,12,0.4c2.1,0.3,5.6,0.4,10.5,0.4c4.9,0,10.4,0.1,16.6,0.4c6.2,0.3,12.6,0.6,19.3,1
		c6.7,0.4,12.8,1,18.4,1.8c5.5,0.8,10.1,1.8,13.6,3c3.6,1.2,5.3,2.6,5.3,4.1c0,2.6-2.3,5.3-6.9,8.1c-4.6,2.8-10.5,5.3-17.8,7.7
		c-7.2,2.4-15.3,4.3-24.1,5.7C123.3,34,114.7,34.7,106.2,34.7z"/>
	<path id="XMLID_5_" d="M159.9,112.5c5.3,0.5,9,2.6,11.2,6.3c2.2,3.7,3.7,8.1,4.5,13.2c0.8,5.1,1,10.6,0.8,16.4
		c-0.3,5.8-0.3,11.2-0.2,16.2c0.1,5,0.8,9.2,2,12.6c1.2,3.4,3.6,5.3,7.3,5.5c3.2,0.5,6.2-0.8,9.3-3.9c3-3.2,6-7.3,9.1-12.4
		c3-5.1,6.2-10.9,9.5-17.2c3.3-6.3,6.9-12.5,10.9-18.5c2.9-4.5,6-7.8,9.5-9.9c3.4-2.1,6.6-3.6,9.5-4.3c3.4-1,6.8-1.3,10.3-0.8
		c5.5-0.3,11.1,3.8,16.6,12.2c2.4,3.7,4.9,8.4,7.5,14c2.6,5.7,5.3,12.8,7.9,21.3c2.6,8.6,5.3,18.7,7.9,30.4
		c2.6,11.7,5.1,25.5,7.5,41.2c3.4,22.4,4.1,42.9,2.2,61.6c-2,18.7-5.8,35.3-11.4,49.9c-5.7,14.6-12.9,27.2-21.7,37.7
		c-8.8,10.5-18.4,18.9-28.6,25.1c-10.3,6.2-20.9,10.1-32,11.8c-11.1,1.7-21.8,1.1-32.4-1.8c-10-2.9-18.9-8.5-26.6-16.8
		c-7.8-8.3-13.6-18-17.6-29c-3.9-11-5.3-22.8-4.1-35.3c1.2-12.5,6-24.3,14.4-35.3c8.2-11.1,17.9-19.8,29.2-26.2
		c11.3-6.4,22.2-11,32.6-13.8c10.4-2.8,19.1-4,26.2-3.7c7.1,0.3,10.5,1.3,10.3,3.2c0,2.1-1.9,4.3-5.7,6.7c-3.8,2.4-8.7,5.5-14.6,9.3
		c-5.9,3.8-12.6,8.7-20.1,14.6s-14.9,13.5-22.3,22.7c-7.4,9.2-10.9,17.8-10.7,25.7c0.3,7.9,3.2,13.7,8.9,17.6
		c5.7,3.8,13.6,4.8,23.9,3c10.3-1.8,21.7-8,34.3-18.5c6.3-5.3,11.3-11.7,15-19.3c3.7-7.6,6.3-16,7.9-25.1c1.6-9.1,2.3-18.5,2.2-28.2
		c-0.1-9.7-0.7-19.3-1.8-28.8c-2.6-22.1-7.6-45.2-15-69.5c-4.2,7.9-8.9,15-14.2,21.3c-4.5,5.3-9.9,10.1-16.4,14.4
		c-6.5,4.3-13.6,6.5-21.5,6.5c-11.8,0-21.3-2.6-28.4-7.7c-7.1-5.1-12.3-11.5-15.6-19.1c-3.3-7.6-5-15.9-5.1-24.9
		c-0.1-8.9,0.6-17.2,2.2-24.7c1.6-7.5,3.9-13.7,6.9-18.5C154,114.5,157,112.2,159.9,112.5z"/>
	<path id="XMLID_7_" d="M332.4,89.6c2.4-2.6,5.1-3.7,8.3-3.4c3.2,0.4,6.3,1.6,9.5,3.7c3.2,2.1,6.1,4.6,8.9,7.5
		c2.8,2.9,4.8,5.4,6.1,7.5c1.6,2.4,2.8,6,3.6,10.9c0.8,4.9,1.4,9.6,1.8,14.2c0.4,4.6,0.8,8.4,1.4,11.2c0.5,2.9,1.4,3.6,2.8,2
		c1-1.6,3-4.5,5.9-8.9c2.9-4.3,6.8-8.8,11.6-13.4c4.9-4.6,10.8-8.6,17.8-12c7-3.4,15.1-4.7,24.3-3.9c6.6,0.5,13.1,2.2,19.5,4.9
		c6.4,2.8,12,6.7,16.8,11.8c4.7,5.1,8.5,11.5,11.2,19.1c2.8,7.6,3.9,16.3,3.4,26c-0.5,10.3-2.5,19.3-5.9,27
		c-3.4,7.8-8,14.3-13.8,19.7c-5.8,5.4-12.3,9.7-19.5,13c-7.2,3.3-14.8,5.7-22.7,7.3c-13.9,2.9-23.4,3.9-28.2,3.2
		c-4.9-0.8-6.8-3.3-5.7-7.5c0.5-2.1,1.6-3.9,3.2-5.3c1.6-1.4,3.7-2.9,6.5-4.3c2.8-1.4,6.2-3,10.3-4.7c4.1-1.7,8.9-4,14.4-6.9
		c5-2.6,9.5-6.5,13.6-11.6c4.1-5.1,6.9-10.7,8.5-16.6c1.6-5.9,1.7-11.9,0.4-18c-1.3-6-4.7-11.3-10.3-15.8
		c-9.2-7.6-18.4-9.2-27.4-4.7c-9.1,4.5-16.8,13.8-23.1,28c-2.9,6.3-5.1,15.3-6.7,26.8c-1.6,11.6-2.7,24.3-3.4,38.1
		c-0.7,13.8-1,28.1-1,42.8s0.1,28.5,0.2,41.4c0.1,12.9,0.2,24.2,0.2,33.9c0,9.7-0.3,16.4-0.8,20.1c-0.8,5.5-2.8,9.1-5.9,10.7
		c-3.2,1.6-6.8,2-11.1,1.2c-4.2-0.8-8.5-2.6-12.8-5.3c-4.3-2.8-8-5.7-10.9-8.9c-1.1-1.1-2-5.9-2.8-14.4c-0.8-8.6-1.4-19.3-2-32.4
		c-0.5-13-0.9-27.7-1.2-44c-0.3-16.3-0.4-33-0.4-49.9s0.1-33.6,0.4-49.9c0.3-16.3,0.7-31,1.2-44c0.5-13,1.1-23.7,1.8-32.2
		C330.8,95.4,331.6,90.6,332.4,89.6z"/>
	<path id="XMLID_9_" d="M510.4,121.6c3.7-7.1,8.5-13.3,14.6-18.5c6-5.3,12.7-9.5,19.9-12.8c7.2-3.3,14.9-5.7,22.9-7.3
		c8-1.6,15.8-2.4,23.5-2.4c7.9,0.5,14.7,3.1,20.3,7.7c5.7,4.6,9.7,10.5,12,17.8c2.4,7.2,2.8,15.3,1.4,24.3
		c-1.4,8.9-5.3,18-11.6,27.2c-6.8,10-14.1,17.5-21.9,22.5c-7.8,5-14.9,8.6-21.5,10.7c-7.6,2.6-15.1,3.8-22.5,3.6
		c-0.3,10,0.8,18.5,3.2,25.7c1,3.2,2.3,6.1,3.7,8.9c1.4,2.8,3.4,5.2,5.7,7.3c2.4,2.1,5.3,3.6,8.7,4.5c3.4,0.9,7.4,1,11.8,0.2
		c9.5-1.6,17.2-5.1,23.1-10.5c5.9-5.4,10.9-10.9,14.8-16.4c3.9-5.5,7.2-10.3,9.7-14.4c2.5-4.1,4.9-5.6,7.3-4.5
		c2.9,1.3,4.4,4.6,4.5,9.9c0.1,5.3-1.1,11.4-3.7,18.5c-2.6,7.1-6.5,14.4-11.6,21.9c-5.1,7.5-11.6,13.9-19.5,19.1
		c-7.9,5.3-17,8.9-27.2,10.9c-10.3,2-21.7,1-34.3-3c-10.3-3.2-18.8-8.2-25.7-15c-6.8-6.8-12.2-14.7-16.2-23.7
		c-3.9-8.9-6.6-18.5-7.9-28.8c-1.3-10.3-1.5-20.5-0.6-30.6c0.9-10.1,2.9-19.8,5.9-29C502.1,136,505.9,128.1,510.4,121.6z
		 M547.1,164.6c3.4-0.5,7.2-1.6,11.4-3.2c3.7-1.3,7.7-3.3,12-5.9c4.3-2.6,9-6.3,14-11.1c4.7-4.5,8-8.8,9.7-13
		c1.7-4.2,2.7-7.8,3-10.7c0.3-3.4-0.3-6.6-1.6-9.5c-3.7-1-7.6-1-11.8,0c-3.7,1.1-7.8,3.2-12.2,6.3c-4.5,3.2-9.1,8.2-13.8,15
		c-3.7,5.3-6.3,9.9-7.9,14c-1.6,4.1-2.6,7.4-3.2,10.1C546.1,159.8,546.3,162.5,547.1,164.6z"/>
</g>
</svg>
